<mxfile host="app.diagrams.net" modified="2021-07-15T12:42:09.474Z" agent="5.0 (Macintosh; Intel Mac OS X 10_15_7) AppleWebKit/537.36 (KHTML, like Gecko) Chrome/91.0.4472.114 Safari/537.36" etag="mmrrPU89z3WqiDiS-Xpl" version="14.8.6" type="github">
  <diagram id="sf3XYVGDUeCmZ9rPYX9t" name="Page-1">
    <mxGraphModel dx="1426" dy="914" grid="1" gridSize="10" guides="1" tooltips="1" connect="1" arrows="1" fold="1" page="1" pageScale="1" pageWidth="1200" pageHeight="1920" math="0" shadow="0">
      <root>
        <mxCell id="0" />
        <mxCell id="1" parent="0" />
        <mxCell id="-BWLlIB8LtFC3wbSPRq8-3" style="edgeStyle=orthogonalEdgeStyle;rounded=0;orthogonalLoop=1;jettySize=auto;html=1;exitX=1;exitY=0.5;exitDx=0;exitDy=0;entryX=0;entryY=0.5;entryDx=0;entryDy=0;" edge="1" parent="1" source="-BWLlIB8LtFC3wbSPRq8-1" target="-BWLlIB8LtFC3wbSPRq8-2">
          <mxGeometry relative="1" as="geometry" />
        </mxCell>
        <mxCell id="-BWLlIB8LtFC3wbSPRq8-1" value="商品" style="rounded=1;whiteSpace=wrap;html=1;" vertex="1" parent="1">
          <mxGeometry x="70" y="170" width="100" height="60" as="geometry" />
        </mxCell>
        <mxCell id="-BWLlIB8LtFC3wbSPRq8-10" style="edgeStyle=orthogonalEdgeStyle;rounded=0;orthogonalLoop=1;jettySize=auto;html=1;exitX=1;exitY=0.5;exitDx=0;exitDy=0;entryX=0;entryY=0.5;entryDx=0;entryDy=0;" edge="1" parent="1" source="-BWLlIB8LtFC3wbSPRq8-2" target="-BWLlIB8LtFC3wbSPRq8-4">
          <mxGeometry relative="1" as="geometry">
            <Array as="points">
              <mxPoint x="330" y="200" />
              <mxPoint x="330" y="130" />
            </Array>
          </mxGeometry>
        </mxCell>
        <mxCell id="-BWLlIB8LtFC3wbSPRq8-16" style="edgeStyle=orthogonalEdgeStyle;rounded=0;orthogonalLoop=1;jettySize=auto;html=1;exitX=0.5;exitY=1;exitDx=0;exitDy=0;entryX=0;entryY=0.5;entryDx=0;entryDy=0;" edge="1" parent="1" source="-BWLlIB8LtFC3wbSPRq8-2" target="-BWLlIB8LtFC3wbSPRq8-5">
          <mxGeometry relative="1" as="geometry" />
        </mxCell>
        <mxCell id="-BWLlIB8LtFC3wbSPRq8-2" value="排期" style="rounded=1;whiteSpace=wrap;html=1;" vertex="1" parent="1">
          <mxGeometry x="270" y="170" width="120" height="60" as="geometry" />
        </mxCell>
        <mxCell id="-BWLlIB8LtFC3wbSPRq8-12" style="edgeStyle=orthogonalEdgeStyle;rounded=0;orthogonalLoop=1;jettySize=auto;html=1;exitX=1;exitY=0.5;exitDx=0;exitDy=0;" edge="1" parent="1" source="-BWLlIB8LtFC3wbSPRq8-4">
          <mxGeometry relative="1" as="geometry">
            <mxPoint x="760" y="200" as="targetPoint" />
          </mxGeometry>
        </mxCell>
        <mxCell id="-BWLlIB8LtFC3wbSPRq8-4" value="加入卖场" style="rounded=1;whiteSpace=wrap;html=1;" vertex="1" parent="1">
          <mxGeometry x="460" y="100" width="120" height="60" as="geometry" />
        </mxCell>
        <mxCell id="-BWLlIB8LtFC3wbSPRq8-8" style="edgeStyle=orthogonalEdgeStyle;rounded=0;orthogonalLoop=1;jettySize=auto;html=1;exitX=1;exitY=0.5;exitDx=0;exitDy=0;entryX=0.25;entryY=0;entryDx=0;entryDy=0;" edge="1" parent="1" source="-BWLlIB8LtFC3wbSPRq8-5" target="-BWLlIB8LtFC3wbSPRq8-7">
          <mxGeometry relative="1" as="geometry" />
        </mxCell>
        <mxCell id="-BWLlIB8LtFC3wbSPRq8-5" value="添加活动商品" style="rounded=0;whiteSpace=wrap;html=1;" vertex="1" parent="1">
          <mxGeometry x="450" y="250" width="120" height="60" as="geometry" />
        </mxCell>
        <mxCell id="-BWLlIB8LtFC3wbSPRq8-9" style="edgeStyle=orthogonalEdgeStyle;rounded=0;orthogonalLoop=1;jettySize=auto;html=1;exitX=1;exitY=0.5;exitDx=0;exitDy=0;entryX=0.5;entryY=1;entryDx=0;entryDy=0;" edge="1" parent="1" source="-BWLlIB8LtFC3wbSPRq8-6" target="-BWLlIB8LtFC3wbSPRq8-7">
          <mxGeometry relative="1" as="geometry">
            <Array as="points">
              <mxPoint x="700" y="420" />
            </Array>
          </mxGeometry>
        </mxCell>
        <mxCell id="-BWLlIB8LtFC3wbSPRq8-6" value="添加活动场次" style="rounded=1;whiteSpace=wrap;html=1;" vertex="1" parent="1">
          <mxGeometry x="450" y="390" width="120" height="60" as="geometry" />
        </mxCell>
        <mxCell id="-BWLlIB8LtFC3wbSPRq8-14" style="edgeStyle=orthogonalEdgeStyle;rounded=0;orthogonalLoop=1;jettySize=auto;html=1;exitX=0.5;exitY=0;exitDx=0;exitDy=0;entryX=0.55;entryY=0.95;entryDx=0;entryDy=0;entryPerimeter=0;" edge="1" parent="1" source="-BWLlIB8LtFC3wbSPRq8-7" target="-BWLlIB8LtFC3wbSPRq8-13">
          <mxGeometry relative="1" as="geometry" />
        </mxCell>
        <mxCell id="-BWLlIB8LtFC3wbSPRq8-7" value="关联" style="rounded=1;whiteSpace=wrap;html=1;" vertex="1" parent="1">
          <mxGeometry x="640" y="320" width="120" height="60" as="geometry" />
        </mxCell>
        <mxCell id="-BWLlIB8LtFC3wbSPRq8-11" value="售卖" style="rounded=1;whiteSpace=wrap;html=1;" vertex="1" parent="1">
          <mxGeometry x="880" y="170" width="120" height="60" as="geometry" />
        </mxCell>
        <mxCell id="-BWLlIB8LtFC3wbSPRq8-15" style="edgeStyle=orthogonalEdgeStyle;rounded=0;orthogonalLoop=1;jettySize=auto;html=1;exitX=0.875;exitY=0.5;exitDx=0;exitDy=0;exitPerimeter=0;" edge="1" parent="1" source="-BWLlIB8LtFC3wbSPRq8-13" target="-BWLlIB8LtFC3wbSPRq8-11">
          <mxGeometry relative="1" as="geometry" />
        </mxCell>
        <mxCell id="-BWLlIB8LtFC3wbSPRq8-13" value="配置完成" style="ellipse;shape=cloud;whiteSpace=wrap;html=1;" vertex="1" parent="1">
          <mxGeometry x="700" y="170" width="120" height="80" as="geometry" />
        </mxCell>
      </root>
    </mxGraphModel>
  </diagram>
</mxfile>
